<?xml version="1.0" encoding="utf-8"?>
<!-- Generator: Adobe Illustrator 19.0.0, SVG Export Plug-In . SVG Version: 6.00 Build 0)  -->
<!DOCTYPE svg PUBLIC "-//W3C//DTD SVG 1.1//EN" "http://www.w3.org/Graphics/SVG/1.1/DTD/svg11.dtd">
<svg version="1.1" id="Layer_1" xmlns="http://www.w3.org/2000/svg" xmlns:xlink="http://www.w3.org/1999/xlink" x="0px" y="0px"
	 viewBox="0 0 163.9 168" enable-background="new 0 0 163.9 168" xml:space="preserve">
<g>
	<path fill-rule="evenodd" clip-rule="evenodd" fill="#FDBD10" d="M88.3,153.4c37.9-4.1,65.2-39,61-77.9
		c-4.2-38.9-38.4-67-76.3-62.9C35,16.8,7.7,51.6,12,90.5C16.2,129.4,50.4,157.5,88.3,153.4 M91,167.5c45-4.9,77.3-46.3,72.3-92.4
		c-5-46.1-45.6-79.5-90.5-74.6C27.9,5.4-4.5,46.7,0.5,92.8C5.5,139,46.1,172.4,91,167.5z"/>
	<path fill-rule="evenodd" clip-rule="evenodd" fill="#FFE40F" d="M90,154.9c36.4-4,62.7-37.5,58.6-74.9
		c-4.1-37.4-36.9-64.5-73.4-60.5c-36.4,4-62.7,37.5-58.6,74.9C20.7,131.8,53.5,158.9,90,154.9"/>
</g>
<g>
	<g id="XMLID_213_">
		<path id="XMLID_227_" d="M50,95.6l0.7,2.9c1.4-2.5,3.5-4.2,6.3-4.9c2.7-0.7,4.9-0.5,6.7,0.6c1.8,1.1,3.1,3.1,3.8,6l3.7,14.1
			l-11,2.9L56.7,104c-0.5-1.9-1.5-2.6-2.9-2.3c-0.7,0.2-1.3,0.6-1.9,1.3l4,15.4l-11.7,3l-5.9-22.7L50,95.6z"/>
		<path id="XMLID_224_" d="M81.8,117.1c-3.7-0.5-6.6-2-8.7-4.5s-3-5.6-2.5-9.2c0.4-3.6,2-6.3,4.6-8.3c2.6-2,5.8-2.7,9.6-2.2
			c3.8,0.5,6.7,2,8.8,4.5c2.1,2.5,2.9,5.6,2.5,9.2c-0.4,3.6-2,6.3-4.6,8.3C88.8,116.9,85.6,117.6,81.8,117.1z M83.7,102.2
			c-0.8-0.1-1.4,0.1-2,0.5c-0.5,0.4-0.9,1-1,1.8c-0.1,0.8,0.1,1.5,0.5,2c0.4,0.6,1,0.9,1.8,1c0.8,0.1,1.5-0.1,2-0.5
			c0.6-0.4,0.9-1,1-1.8c0.1-0.8-0.1-1.5-0.5-2C85.1,102.6,84.5,102.3,83.7,102.2z"/>
		<path id="XMLID_222_" d="M94.4,90.9l12.1,2.6l1.2,5.4l3.1-4.5l5.5,1.2l1.1,5.4l3.4-4.4l12.2,2.6L118,119.9l-6.6-1.4l-1.4-6.9
			l-4.1,5.7l-6.6-1.4L94.4,90.9z"/>
	</g>
	<g id="XMLID_179_">
		<g id="XMLID_191_">
			<g id="XMLID_199_">
				<path id="XMLID_200_" fill="#68BC49" d="M48.2,93.8l0.7,2.9c1.4-2.5,3.5-4.2,6.3-4.9c2.7-0.7,4.9-0.5,6.7,0.6
					c1.8,1.1,3.1,3.1,3.8,6l3.7,14.1l-11,2.9l-3.4-13.3c-0.5-1.9-1.5-2.6-2.9-2.3c-0.7,0.2-1.3,0.6-1.9,1.3l4,15.4l-11.7,3
					l-5.9-22.7L48.2,93.8z"/>
			</g>
			<g id="XMLID_195_">
				<path id="XMLID_196_" fill="#68BC49" d="M80,115.3c-3.7-0.5-6.6-2-8.7-4.5s-3-5.6-2.5-9.2c0.4-3.6,2-6.3,4.6-8.3
					c2.6-2,5.8-2.7,9.6-2.2c3.8,0.5,6.7,2,8.8,4.5c2.1,2.5,2.9,5.6,2.5,9.2c-0.4,3.6-2,6.3-4.6,8.3C87,115,83.8,115.8,80,115.3z
					 M81.9,100.3c-0.8-0.1-1.4,0.1-2,0.5c-0.5,0.4-0.9,1-1,1.8c-0.1,0.8,0.1,1.5,0.5,2c0.4,0.6,1,0.9,1.8,1c0.8,0.1,1.5-0.1,2-0.5
					c0.6-0.4,0.9-1,1-1.8c0.1-0.8-0.1-1.5-0.5-2C83.3,100.8,82.7,100.4,81.9,100.3z"/>
			</g>
			<g id="XMLID_192_">
				<path id="XMLID_193_" fill="#68BC49" d="M92.6,89l12.1,2.6l1.2,5.4l3.1-4.5l5.5,1.2l1.1,5.4l3.4-4.4l12.2,2.6L116.2,118
					l-6.6-1.4l-1.4-6.9l-4.1,5.7l-6.6-1.4L92.6,89z"/>
			</g>
		</g>
	</g>
</g>
<g>
	<g id="XMLID_312_">
		<path id="XMLID_335_" d="M62.1,60.8l-0.3,2.9c2.2-1.9,4.8-2.7,7.6-2.4c2.7,0.3,4.7,1.3,6,2.9c1.3,1.7,1.8,4,1.5,7l-1.5,14.5
			L64,84.6L65.4,71c0.2-1.9-0.4-3-1.9-3.1c-0.7-0.1-1.5,0.1-2.2,0.5l-1.7,15.8l-12-1.3l2.5-23.4L62.1,60.8z"/>
		<path id="XMLID_333_" d="M92.7,66.1c1.2-3.7,3.3-5.7,6.2-5.9c1.6-0.1,3,0.3,4.1,1.2c1.1,1,1.8,2.3,1.9,3.9
			c0.2,1.7-0.2,3.1-1.2,4.3c-0.9,1.1-2.2,1.8-3.9,2c-1.9,0.2-3.6-0.4-5.1-1.7c-1.1,1.1-1.5,3.1-1.3,5.8l0.8,8.7l-12,1.1L80.2,62
			l12-1.1L92.7,66.1z"/>
		<path id="XMLID_330_" d="M111.9,87.2c-3.7-0.5-6.6-2-8.7-4.5c-2.1-2.5-3-5.6-2.5-9.2c0.4-3.6,2-6.3,4.6-8.3c2.6-2,5.8-2.7,9.6-2.2
			c3.8,0.5,6.7,2,8.8,4.5c2.1,2.5,2.9,5.6,2.5,9.2c-0.4,3.6-2,6.3-4.6,8.3C118.8,87,115.6,87.7,111.9,87.2z M113.7,72.3
			c-0.8-0.1-1.4,0.1-2,0.5c-0.5,0.4-0.9,1-1,1.8c-0.1,0.8,0.1,1.5,0.5,2c0.4,0.6,1,0.9,1.8,1c0.8,0.1,1.5-0.1,2-0.5
			c0.6-0.4,0.9-1,1-1.8c0.1-0.8-0.1-1.5-0.5-2C115.1,72.7,114.5,72.4,113.7,72.3z"/>
		<path id="XMLID_328_" d="M141.3,83.1l-11.8,2.4l-5.9-29.2l11.8-2.4L141.3,83.1z"/>
		<path id="XMLID_325_" d="M47,73.1l0.8,4c-1.9,3.9-5.2,6.4-10.1,7.4c-4,0.8-7.4,0.4-10.3-1.3c-2.9-1.7-4.7-4.4-5.5-8
			c-0.7-3.5-0.2-6.5,1.6-9.1c1.8-2.6,4.5-4.3,8-5.1c1.8-0.4,3.6-0.4,5.3-0.1c1.7,0.3,3.2,0.9,4.6,1.8c1.4,0.9,2.5,2.1,3.4,3.6
			c0.9,1.5,1.5,3.3,2,5.6l-12.1,2.5c0.7,1.1,1.6,1.8,2.8,2.3c1.2,0.4,2.4,0.5,3.7,0.3C43.7,76.4,45.7,75.1,47,73.1z M33.1,70.5
			l5.6-1.2c-0.3-1.1-0.8-2-1.4-2.5c-0.6-0.5-1.4-0.7-2.2-0.5c-0.7,0.2-1.3,0.6-1.7,1.3C32.9,68.4,32.8,69.3,33.1,70.5z"/>
	</g>
	<g id="XMLID_257_">
		<g id="XMLID_276_">
			<g id="XMLID_291_">
				<path id="XMLID_292_" fill="#D53693" d="M60.2,59l-0.3,2.9c2.2-1.9,4.8-2.7,7.6-2.4c2.7,0.3,4.7,1.3,6,2.9c1.3,1.7,1.8,4,1.5,7
					L73.5,84l-11.3-1.2l1.4-13.6c0.2-1.9-0.4-3-1.9-3.1c-0.7-0.1-1.5,0.1-2.2,0.5l-1.7,15.8l-12-1.3l2.5-23.4L60.2,59z"/>
			</g>
			<g id="XMLID_288_">
				<path id="XMLID_289_" fill="#D53693" d="M90.8,64.2c1.2-3.7,3.3-5.7,6.2-5.9c1.6-0.1,3,0.3,4.1,1.2c1.1,1,1.8,2.3,1.9,3.9
					c0.2,1.7-0.2,3.1-1.2,4.3c-0.9,1.1-2.2,1.8-3.9,2c-1.9,0.2-3.6-0.4-5.1-1.7c-1.1,1.1-1.5,3.1-1.3,5.8l0.8,8.7l-12,1.1l-2.1-23.4
					l12-1.1L90.8,64.2z"/>
			</g>
			<g id="XMLID_284_">
				<path id="XMLID_285_" fill="#D53693" d="M110,85.4c-3.7-0.5-6.6-2-8.7-4.5c-2.1-2.5-3-5.6-2.5-9.2c0.4-3.6,2-6.3,4.6-8.3
					c2.6-2,5.8-2.7,9.6-2.2c3.8,0.5,6.7,2,8.8,4.5c2.1,2.5,2.9,5.6,2.5,9.2c-0.4,3.6-2,6.3-4.6,8.3C117,85.2,113.8,85.9,110,85.4z
					 M111.9,70.5c-0.8-0.1-1.4,0.1-2,0.5c-0.5,0.4-0.9,1-1,1.8c-0.1,0.8,0.1,1.5,0.5,2c0.4,0.6,1,0.9,1.8,1c0.8,0.1,1.5-0.1,2-0.5
					c0.6-0.4,0.9-1,1-1.8c0.1-0.8-0.1-1.5-0.5-2C113.3,70.9,112.7,70.6,111.9,70.5z"/>
			</g>
			<g id="XMLID_281_">
				<path id="XMLID_282_" fill="#D53693" d="M139.5,81.3l-11.8,2.4l-5.9-29.2l11.8-2.4L139.5,81.3z"/>
			</g>
			<g id="XMLID_277_">
				<path id="XMLID_278_" fill="#D53693" d="M45.1,71.3l0.8,4c-1.9,3.9-5.2,6.4-10.1,7.4c-4,0.8-7.4,0.4-10.3-1.3
					c-2.9-1.7-4.7-4.4-5.5-8c-0.7-3.5-0.2-6.5,1.6-9.1c1.8-2.6,4.5-4.3,8-5.1c1.8-0.4,3.6-0.4,5.3-0.1c1.7,0.3,3.2,0.9,4.6,1.8
					c1.4,0.9,2.5,2.1,3.4,3.6c0.9,1.5,1.5,3.3,2,5.6l-12.1,2.5c0.7,1.1,1.6,1.8,2.8,2.3c1.2,0.4,2.4,0.5,3.7,0.3
					C41.9,74.6,43.9,73.3,45.1,71.3z M31.3,68.7l5.6-1.2c-0.3-1.1-0.8-2-1.4-2.5c-0.6-0.5-1.4-0.7-2.2-0.5c-0.7,0.2-1.3,0.6-1.7,1.3
					C31.1,66.5,31,67.5,31.3,68.7z"/>
			</g>
		</g>
	</g>
</g>
</svg>
